<?xml version="1.0" encoding="UTF-8" standalone="no"?>
<!-- Created with Inkscape (http://www.inkscape.org/) -->

<svg
   xmlns:dc="http://purl.org/dc/elements/1.1/"
   xmlns:cc="http://creativecommons.org/ns#"
   xmlns:rdf="http://www.w3.org/1999/02/22-rdf-syntax-ns#"
   xmlns:svg="http://www.w3.org/2000/svg"
   xmlns="http://www.w3.org/2000/svg"
   xmlns:sodipodi="http://sodipodi.sourceforge.net/DTD/sodipodi-0.dtd"
   xmlns:inkscape="http://www.inkscape.org/namespaces/inkscape"
   version="1.1"
   id="svg2"
   xml:space="preserve"
   width="377.94666"
   height="155.82668"
   viewBox="0 0 377.94666 155.82668"
   sodipodi:docname="xii-logo.svg"
   inkscape:version="0.92.2 (5c3e80d, 2017-08-06)"><metadata
     id="metadata8"><rdf:RDF><cc:Work
         rdf:about=""><dc:format>image/svg+xml</dc:format><dc:type
           rdf:resource="http://purl.org/dc/dcmitype/StillImage" /><dc:title></dc:title></cc:Work></rdf:RDF></metadata><defs
     id="defs6" /><sodipodi:namedview
     pagecolor="#ffffff"
     bordercolor="#666666"
     borderopacity="1"
     objecttolerance="10"
     gridtolerance="10"
     guidetolerance="10"
     inkscape:pageopacity="0"
     inkscape:pageshadow="2"
     inkscape:window-width="1446"
     inkscape:window-height="680"
     id="namedview4"
     showgrid="false"
     inkscape:pagecheckerboard="true"
     inkscape:zoom="0.95516125"
     inkscape:cx="188.97333"
     inkscape:cy="77.913338"
     inkscape:window-x="51"
     inkscape:window-y="27"
     inkscape:window-maximized="0"
     inkscape:current-layer="g10" /><g
     id="g10"
     inkscape:groupmode="layer"
     inkscape:label="ink_ext_XXXXXX"
     transform="matrix(1.3333333,0,0,-1.3333333,0,155.82667)"><g
       id="g12"
       transform="scale(0.1)"><path
         d="M 825.418,955.152 V 240.586 L 559.387,597.867 Z"
         style="fill:#38a6e3;fill-opacity:1;fill-rule:nonzero;stroke:none"
         id="path14"
         inkscape:connector-curvature="0" /><path
         d="m 1856.59,737.824 h -79.93 v 239.77 h 82.42 c 82.43,0 126.13,-38.711 126.13,-119.883 0,-91.164 -59.94,-119.887 -128.62,-119.887 z M 1186.32,401.895 h -116.14 v 211.05 h 111.15 c 63.69,0 128.63,-23.73 128.63,-102.402 0,-86.168 -59.95,-108.648 -123.64,-108.648 z M 1070.18,983.84 h 68.69 c 54.95,0 111.14,-17.485 111.14,-87.418 0,-74.926 -51.2,-96.156 -106.15,-96.156 h -73.68 z M 825.418,240.586 559.387,597.867 825.418,955.152 Z M 2532.43,429.367 V 1168.67 H 2282.68 V 287.438 c -69.17,107.515 -189.88,294.89 -207.55,320.511 107.4,41.211 164.84,129.875 164.84,261 0,203.561 -157.35,299.721 -327.19,299.721 -51.2,0 -380.88,0 -380.88,0 V 615.91 c -37.88,68.524 -107.75,100.293 -167,113.172 82.42,41.211 127.38,109.895 127.38,203.555 0,139.873 -99.9,236.033 -270.99,236.033 -108.19,0 -237.06,0 -237.06,0 L 846.66,983.84 H 574.422 L 423.32,780.824 272.777,983.84 H 0 L 287.188,597.961 0,212.074 h 272.242 l 151.199,203.27 150.957,-203.27 c 0,0 503.282,0 663.132,0 124.72,0 242.46,44.582 294.37,152.703 V 212.074 h 249.76 v 337.18 h 49.95 c 27.47,-43.707 201.06,-337.18 201.06,-337.18 h 801.98 v 217.293 h -302.22"
         style="fill:#231f20;fill-opacity:1;fill-rule:nonzero;stroke:none"
         id="path16"
         inkscape:connector-curvature="0" /><path
         d="M 33.0039,84.3516 H 0 V 104.66 H 89.0781 V 84.3516 H 56.2305 V 2.76172 H 33.0039 V 84.3516"
         style="fill:#38a6e3;fill-opacity:1;fill-rule:nonzero;stroke:none"
         id="path18"
         inkscape:connector-curvature="0" /><path
         d="m 106.801,104.66 h 23.07 V 65.5586 h 44.16 V 104.66 h 23.071 V 2.76172 H 174.031 V 44.6211 h -44.16 V 2.76172 h -23.07 V 104.66"
         style="fill:#38a6e3;fill-opacity:1;fill-rule:nonzero;stroke:none"
         id="path20"
         inkscape:connector-curvature="0" /><path
         d="m 221.547,104.66 h 69.676 V 84.5 H 244.617 V 64.6406 h 36.211 V 45.0781 H 244.617 V 23.0703 h 49.965 V 2.76172 H 221.547 V 104.66"
         style="fill:#38a6e3;fill-opacity:1;fill-rule:nonzero;stroke:none"
         id="path22"
         inkscape:connector-curvature="0" /><path
         d="m 384.418,20.4883 c 1.629,0 3.465,0.1211 5.5,0.3711 2.039,0.2617 3.922,0.8398 5.652,1.7617 1.735,0.9102 3.188,2.2383 4.356,3.9687 1.176,1.7305 1.758,4.129 1.758,7.1797 0,2.75 -0.563,4.9922 -1.68,6.7305 -1.121,1.7188 -2.547,3.0781 -4.277,4.0391 -1.735,0.9726 -3.618,1.6406 -5.657,1.9922 -2.035,0.3593 -3.918,0.5273 -5.652,0.5273 H 369.449 V 20.4883 Z m -1.375,43.3828 c 1.73,0 3.441,0.1992 5.117,0.6172 1.684,0.4023 3.156,1.0312 4.438,1.9101 1.269,0.8633 2.312,2.0313 3.129,3.5 0.812,1.4805 1.222,3.293 1.222,5.4297 0,2.2422 -0.41,4.1016 -1.222,5.5703 -0.817,1.4805 -1.887,2.6602 -3.207,3.5235 -1.329,0.8672 -2.829,1.4765 -4.512,1.8398 -1.676,0.3594 -3.336,0.5274 -4.965,0.5274 H 369.449 V 63.8711 Z M 346.984,104.66 h 38.2 c 6.312,0 11.66,-0.73 16.043,-2.199 4.378,-1.492 7.945,-3.4415 10.695,-5.8907 2.75,-2.4492 4.738,-5.2695 5.957,-8.4805 1.223,-3.2109 1.836,-6.539 1.836,-10 0,-3.2695 -0.586,-6.1406 -1.762,-8.6406 -1.168,-2.4883 -2.543,-4.6406 -4.121,-6.4179 -1.578,-1.7813 -3.262,-3.1915 -5.043,-4.2032 -1.785,-1.0195 -3.285,-1.6797 -4.504,-1.9883 1.828,-0.3984 3.942,-1.1406 6.34,-2.2109 2.391,-1.0703 4.66,-2.5976 6.797,-4.5781 2.141,-1.9922 3.945,-4.4805 5.426,-7.4922 1.476,-3.0078 2.215,-6.5469 2.215,-10.6172 0,-5.293 -0.942,-9.7812 -2.825,-13.4414 -1.89,-3.6719 -4.535,-6.6797 -7.949,-9.03125 -3.414,-2.32812 -7.59,-4.03906 -12.527,-5.10937 -4.946,-1.07032 -10.465,-1.59766 -16.578,-1.59766 h -38.2 V 104.66"
         style="fill:#38a6e3;fill-opacity:1;fill-rule:nonzero;stroke:none"
         id="path24"
         inkscape:connector-curvature="0" /><path
         d="M 443.703,104.66 H 466.93 V 44.3203 c 0,-3.3594 0.328,-6.3984 0.992,-9.1015 0.66,-2.6993 1.758,-5.0079 3.285,-6.9493 1.531,-1.9297 3.539,-3.4414 6.035,-4.5078 2.496,-1.0703 5.578,-1.6015 9.242,-1.6015 3.567,0 6.598,0.5312 9.094,1.6015 2.492,1.0664 4.508,2.5781 6.035,4.5078 1.524,1.9414 2.621,4.25 3.282,6.9493 0.664,2.7031 0.996,5.7421 0.996,9.1015 V 104.66 h 23.375 V 41.4219 c 0,-6.1211 -0.993,-11.7305 -2.977,-16.8203 -1.988,-5.0899 -4.84,-9.4414 -8.559,-13.0625 C 514.012,7.92188 509.508,5.08984 504.207,3.05859 498.91,1.03125 493.008,0 486.484,0 c -6.515,0 -12.425,1 -17.722,2.98828 -5.297,1.98047 -9.805,4.8125 -13.52,8.47262 -3.719,3.668 -6.57,8.0508 -8.558,13.1407 -1.989,5.0898 -2.981,10.6992 -2.981,16.8203 V 104.66"
         style="fill:#38a6e3;fill-opacity:1;fill-rule:nonzero;stroke:none"
         id="path26"
         inkscape:connector-curvature="0" /><path
         d="m 560.586,33.1602 c 1.32,-1.4219 2.879,-2.8789 4.656,-4.3516 1.781,-1.4688 3.77,-2.8281 5.961,-4.0469 2.192,-1.2304 4.582,-2.2226 7.184,-2.9804 2.597,-0.7696 5.371,-1.1524 8.328,-1.1524 1.73,0 3.457,0.2617 5.191,0.7617 1.735,0.5196 3.313,1.2578 4.739,2.2188 1.425,0.9687 2.57,2.1406 3.433,3.5195 0.871,1.3711 1.301,2.9297 1.301,4.6602 0,3.7617 -1.836,6.6992 -5.5,8.7812 -3.664,2.0899 -9.473,4.1602 -17.418,6.1914 -3.871,0.9102 -7.461,2.2383 -10.77,3.9688 -3.308,1.7304 -6.168,3.8281 -8.558,6.2578 -2.395,2.4531 -4.254,5.2617 -5.578,8.4101 -1.321,3.1602 -1.981,6.6719 -1.981,10.5508 0,4.2696 0.758,8.3008 2.285,12.0703 1.532,3.7618 3.848,7.1016 6.954,10 3.109,2.9105 6.976,5.1995 11.613,6.8715 4.633,1.687 10.109,2.531 16.426,2.531 5.191,0 9.781,-0.543 13.75,-1.613 3.972,-1.071 7.359,-2.34 10.16,-3.809 2.801,-1.488 5.097,-3.0195 6.875,-4.5898 1.781,-1.5821 3.136,-2.8321 4.047,-3.75 L 610.398,79 c -1.125,0.9219 -2.425,1.8984 -3.902,2.9805 -1.473,1.0703 -3.129,2.0586 -4.965,2.9804 -1.836,0.9102 -3.843,1.6797 -6.035,2.2891 -2.187,0.6094 -4.504,0.9219 -6.953,0.9219 -1.625,0 -3.23,-0.2617 -4.813,-0.7735 -1.578,-0.5078 -3.003,-1.1992 -4.277,-2.0586 -1.277,-0.8593 -2.293,-1.8906 -3.055,-3.0585 -0.761,-1.1719 -1.144,-2.4102 -1.144,-3.7305 0,-3.4727 1.832,-6.2695 5.5,-8.4219 3.668,-2.1289 8.707,-3.918 15.125,-5.3398 3.769,-0.918 7.461,-2.1602 11.078,-3.7383 3.613,-1.5899 6.848,-3.6406 9.703,-6.1914 2.852,-2.5508 5.141,-5.6797 6.871,-9.3985 1.735,-3.7226 2.602,-8.2304 2.602,-13.5195 0,-4.582 -1.024,-8.8125 -3.055,-12.6797 -2.043,-3.8828 -4.816,-7.2422 -8.328,-10.08982 -3.512,-2.85157 -7.641,-5.07032 -12.379,-6.64063 -4.734,-1.582031 -9.851,-2.371094 -15.351,-2.371094 -5.094,0 -9.735,0.488282 -13.907,1.449224 -4.175,0.96875 -7.945,2.24218 -11.304,3.82031 -3.364,1.58203 -6.395,3.39062 -9.094,5.42191 -2.699,2.039 -5.016,4.1289 -6.949,6.2695 l 14.82,16.0391"
         style="fill:#38a6e3;fill-opacity:1;fill-rule:nonzero;stroke:none"
         id="path28"
         inkscape:connector-curvature="0" /><path
         d="m 647.828,104.66 h 23.07 V 2.76172 h -23.07 V 104.66"
         style="fill:#38a6e3;fill-opacity:1;fill-rule:nonzero;stroke:none"
         id="path30"
         inkscape:connector-curvature="0" /><path
         d="m 695.344,104.66 h 22.008 L 761.504,38.5117 V 104.66 H 784.27 V 2.76172 H 763.34 L 718.109,70.1289 V 2.76172 H 695.344 V 104.66"
         style="fill:#38a6e3;fill-opacity:1;fill-rule:nonzero;stroke:none"
         id="path32"
         inkscape:connector-curvature="0" /><path
         d="m 808.711,104.66 h 69.676 V 84.5 H 831.781 V 64.6406 h 36.211 V 45.0781 H 831.781 V 23.0703 h 49.965 V 2.76172 H 808.711 V 104.66"
         style="fill:#38a6e3;fill-opacity:1;fill-rule:nonzero;stroke:none"
         id="path34"
         inkscape:connector-curvature="0" /><path
         d="m 909.855,33.1602 c 1.325,-1.4219 2.879,-2.8789 4.661,-4.3516 1.781,-1.4688 3.769,-2.8281 5.961,-4.0469 2.187,-1.2304 4.582,-2.2226 7.179,-2.9804 2.602,-0.7696 5.375,-1.1524 8.332,-1.1524 1.731,0 3.457,0.2617 5.192,0.7617 1.73,0.5196 3.312,1.2578 4.738,2.2188 1.426,0.9687 2.57,2.1406 3.434,3.5195 0.867,1.3711 1.3,2.9297 1.3,4.6602 0,3.7617 -1.836,6.6992 -5.5,8.7812 -3.664,2.0899 -9.472,4.1602 -17.418,6.1914 -3.871,0.9102 -7.461,2.2383 -10.769,3.9688 -3.313,1.7304 -6.168,3.8281 -8.559,6.2578 -2.394,2.4531 -4.258,5.2617 -5.578,8.4101 -1.32,3.1602 -1.984,6.6719 -1.984,10.5508 0,4.2696 0.761,8.3008 2.289,12.0703 1.531,3.7618 3.847,7.1016 6.953,10 3.109,2.9105 6.977,5.1995 11.613,6.8715 4.629,1.687 10.11,2.531 16.422,2.531 5.195,0 9.781,-0.543 13.754,-1.613 3.973,-1.071 7.355,-2.34 10.16,-3.809 2.801,-1.488 5.094,-3.0195 6.875,-4.5898 1.781,-1.5821 3.137,-2.8321 4.047,-3.75 L 959.668,79 c -1.125,0.9219 -2.426,1.8984 -3.898,2.9805 -1.473,1.0703 -3.129,2.0586 -4.965,2.9804 -1.836,0.9102 -3.844,1.6797 -6.035,2.2891 -2.192,0.6094 -4.508,0.9219 -6.954,0.9219 -1.628,0 -3.234,-0.2617 -4.812,-0.7735 -1.578,-0.5078 -3.004,-1.1992 -4.277,-2.0586 -1.278,-0.8593 -2.293,-1.8906 -3.059,-3.0585 -0.758,-1.1719 -1.141,-2.4102 -1.141,-3.7305 0,-3.4727 1.832,-6.2695 5.5,-8.4219 3.664,-2.1289 8.707,-3.918 15.125,-5.3398 3.77,-0.918 7.461,-2.1602 11.075,-3.7383 3.617,-1.5899 6.851,-3.6406 9.707,-6.1914 2.851,-2.5508 5.14,-5.6797 6.871,-9.3985 1.73,-3.7226 2.601,-8.2304 2.601,-13.5195 0,-4.582 -1.023,-8.8125 -3.054,-12.6797 -2.043,-3.8828 -4.817,-7.2422 -8.329,-10.08982 -3.511,-2.85157 -7.64,-5.07032 -12.378,-6.64063 -4.735,-1.582031 -9.852,-2.371094 -15.352,-2.371094 -5.098,0 -9.734,0.488282 -13.906,1.449224 -4.176,0.96875 -7.946,2.24218 -11.305,3.82031 -3.367,1.58203 -6.398,3.39062 -9.094,5.42191 -2.699,2.039 -5.015,4.1289 -6.949,6.2695 l 14.816,16.0391"
         style="fill:#38a6e3;fill-opacity:1;fill-rule:nonzero;stroke:none"
         id="path36"
         inkscape:connector-curvature="0" /><path
         d="m 1003.52,33.1602 c 1.32,-1.4219 2.88,-2.8789 4.66,-4.3516 1.78,-1.4688 3.76,-2.8281 5.95,-4.0469 2.19,-1.2304 4.59,-2.2226 7.19,-2.9804 2.6,-0.7696 5.37,-1.1524 8.33,-1.1524 1.73,0 3.45,0.2617 5.19,0.7617 1.73,0.5196 3.31,1.2578 4.74,2.2188 1.42,0.9687 2.57,2.1406 3.43,3.5195 0.87,1.3711 1.3,2.9297 1.3,4.6602 0,3.7617 -1.83,6.6992 -5.5,8.7812 -3.66,2.0899 -9.47,4.1602 -17.42,6.1914 -3.87,0.9102 -7.46,2.2383 -10.77,3.9688 -3.31,1.7304 -6.16,3.8281 -8.56,6.2578 -2.388,2.4531 -4.251,5.2617 -5.572,8.4101 -1.32,3.1602 -1.984,6.6719 -1.984,10.5508 0,4.2696 0.762,8.3008 2.289,12.0703 1.531,3.7618 3.847,7.1016 6.957,10 3.1,2.9105 6.97,5.1995 11.61,6.8715 4.63,1.687 10.11,2.531 16.42,2.531 5.2,0 9.78,-0.543 13.75,-1.613 3.98,-1.071 7.36,-2.34 10.16,-3.809 2.81,-1.488 5.1,-3.0195 6.88,-4.5898 1.78,-1.5821 3.13,-2.8321 4.05,-3.75 L 1053.33,79 c -1.13,0.9219 -2.43,1.8984 -3.9,2.9805 -1.48,1.0703 -3.13,2.0586 -4.97,2.9804 -1.83,0.9102 -3.84,1.6797 -6.03,2.2891 -2.19,0.6094 -4.51,0.9219 -6.95,0.9219 -1.63,0 -3.24,-0.2617 -4.82,-0.7735 -1.57,-0.5078 -3,-1.1992 -4.27,-2.0586 -1.28,-0.8593 -2.3,-1.8906 -3.06,-3.0585 -0.76,-1.1719 -1.14,-2.4102 -1.14,-3.7305 0,-3.4727 1.83,-6.2695 5.5,-8.4219 3.66,-2.1289 8.7,-3.918 15.12,-5.3398 3.77,-0.918 7.46,-2.1602 11.08,-3.7383 3.61,-1.5899 6.85,-3.6406 9.7,-6.1914 2.85,-2.5508 5.14,-5.6797 6.87,-9.3985 1.74,-3.7226 2.6,-8.2304 2.6,-13.5195 0,-4.582 -1.02,-8.8125 -3.05,-12.6797 -2.04,-3.8828 -4.82,-7.2422 -8.33,-10.08982 -3.51,-2.85157 -7.64,-5.07032 -12.37,-6.64063 -4.74,-1.582031 -9.86,-2.371094 -15.36,-2.371094 -5.09,0 -9.73,0.488282 -13.9,1.449224 -4.18,0.96875 -7.95,2.24218 -11.31,3.82031 -3.36,1.58203 -6.396,3.39062 -9.095,5.42191 -2.696,2.039 -5.012,4.1289 -6.946,6.2695 l 14.821,16.0391"
         style="fill:#38a6e3;fill-opacity:1;fill-rule:nonzero;stroke:none"
         id="path38"
         inkscape:connector-curvature="0" /><path
         d="m 1159.66,58.6797 c 4.28,0 7.65,1.2695 10.09,3.8203 2.44,2.5391 3.67,5.7617 3.67,9.6211 0,4.168 -1.23,7.5 -3.67,9.9297 -2.44,2.4492 -5.81,3.668 -10.09,3.668 h -14.2 V 58.6797 Z m -36.67,45.9803 h 37.9 c 5.9,0 11.1,-0.84 15.58,-2.512 4.48,-1.679 8.23,-3.9761 11.23,-6.8785 3,-2.9101 5.25,-6.289 6.72,-10.1601 1.48,-3.8711 2.22,-8 2.22,-12.3789 0,-6.6211 -1.45,-12.3907 -4.35,-17.3321 -2.91,-4.9492 -7.01,-8.8867 -12.3,-11.8398 L 1202.6,2.76172 h -25.36 l -18.95,37.42968 h -12.83 V 2.76172 h -22.47 V 104.66"
         style="fill:#38a6e3;fill-opacity:1;fill-rule:nonzero;stroke:none"
         id="path40"
         inkscape:connector-curvature="0" /><path
         d="M 1220.32,104.66 H 1290 V 84.5 h -46.61 V 64.6406 h 36.22 V 45.0781 h -36.22 V 23.0703 h 49.97 V 2.76172 h -73.04 V 104.66"
         style="fill:#38a6e3;fill-opacity:1;fill-rule:nonzero;stroke:none"
         id="path42"
         inkscape:connector-curvature="0" /><path
         d="m 1349.43,57.3008 c 4.28,0 7.66,1.3008 10.16,3.8984 2.5,2.6016 3.75,5.9805 3.75,10.1602 0,4.2812 -1.28,7.7617 -3.82,10.4609 -2.55,2.6992 -5.96,4.0508 -10.24,4.0508 h -13.29 V 57.3008 Z m -35.91,47.3592 h 37.13 c 6.32,0 11.71,-0.898 16.2,-2.738 4.48,-1.832 8.17,-4.2618 11.07,-7.2618 2.91,-3.0118 5.05,-6.4883 6.42,-10.4688 1.38,-3.9726 2.07,-8.0898 2.07,-12.3711 0,-5.5 -0.95,-10.3203 -2.83,-14.4414 -1.89,-4.1172 -4.43,-7.5586 -7.64,-10.3203 -3.21,-2.7383 -6.9,-4.8398 -11.07,-6.2578 -4.18,-1.4297 -8.56,-2.1406 -13.15,-2.1406 h -15.73 V 2.76172 h -22.47 V 104.66"
         style="fill:#38a6e3;fill-opacity:1;fill-rule:nonzero;stroke:none"
         id="path44"
         inkscape:connector-curvature="0" /><path
         d="m 1455.47,21.8516 c 4.48,0 8.5,0.8789 12.07,2.5976 3.56,1.7422 6.59,4.0821 9.09,7.0391 2.49,2.9531 4.4,6.3515 5.73,10.2305 1.32,3.871 1.98,8 1.98,12.3828 0,4.3672 -0.66,8.5 -1.98,12.3672 -1.33,3.871 -3.24,7.2617 -5.73,10.1601 -2.5,2.9102 -5.53,5.1914 -9.09,6.8711 -3.57,1.6914 -7.59,2.5313 -12.07,2.5313 -4.49,0 -8.54,-0.8399 -12.15,-2.5313 -3.62,-1.6797 -6.68,-3.9609 -9.17,-6.8711 -2.5,-2.8984 -4.4,-6.2891 -5.73,-10.1601 -1.32,-3.8672 -1.98,-8 -1.98,-12.3672 0,-4.3828 0.66,-8.5118 1.98,-12.3828 1.33,-3.879 3.23,-7.2774 5.73,-10.2305 2.49,-2.957 5.55,-5.2969 9.17,-7.0391 3.61,-1.7187 7.66,-2.5976 12.15,-2.5976 z m 0,-21.691444 c -7.54,0 -14.54,1.371094 -21.01,4.128904 -6.47,2.75 -12.07,6.51954 -16.81,11.30074 -4.74,4.7891 -8.46,10.4688 -11.15,17.0313 -2.7,6.5781 -4.05,13.6289 -4.05,21.168 0,7.6406 1.35,14.7226 4.05,21.2422 2.69,6.5195 6.41,12.1679 11.15,16.9492 4.74,4.8008 10.34,8.5705 16.81,11.3205 6.47,2.738 13.47,4.121 21.01,4.121 7.53,0 14.54,-1.383 21.01,-4.121 6.46,-2.75 12.07,-6.5197 16.8,-11.3205 4.74,-4.7813 8.45,-10.4297 11.16,-16.9492 2.69,-6.5196 4.04,-13.6016 4.04,-21.2422 0,-7.5391 -1.35,-14.5899 -4.04,-21.168 -2.71,-6.5625 -6.42,-12.2422 -11.16,-17.0313 -4.73,-4.7812 -10.34,-8.55074 -16.8,-11.30074 -6.47,-2.75781 -13.48,-4.128904 -21.01,-4.128904"
         style="fill:#38a6e3;fill-opacity:1;fill-rule:nonzero;stroke:none"
         id="path46"
         inkscape:connector-curvature="0" /><path
         d="m 1565.63,58.6797 c 4.27,0 7.64,1.2695 10.08,3.8203 2.44,2.5391 3.67,5.7617 3.67,9.6211 0,4.168 -1.23,7.5 -3.67,9.9297 -2.44,2.4492 -5.81,3.668 -10.08,3.668 h -14.21 V 58.6797 Z m -36.68,45.9803 h 37.9 c 5.9,0 11.1,-0.84 15.58,-2.512 4.49,-1.679 8.23,-3.9761 11.23,-6.8785 3.01,-2.9101 5.25,-6.289 6.72,-10.1601 1.48,-3.8711 2.22,-8 2.22,-12.3789 0,-6.6211 -1.45,-12.3907 -4.35,-17.3321 -2.91,-4.9492 -7.01,-8.8867 -12.3,-11.8398 l 22.61,-40.79688 h -25.36 l -18.95,37.42968 h -12.83 V 2.76172 h -22.47 V 104.66"
         style="fill:#38a6e3;fill-opacity:1;fill-rule:nonzero;stroke:none"
         id="path48"
         inkscape:connector-curvature="0" /><path
         d="M 1649.51,84.3516 H 1616.5 V 104.66 h 89.08 V 84.3516 h -32.85 V 2.76172 h -23.22 V 84.3516"
         style="fill:#38a6e3;fill-opacity:1;fill-rule:nonzero;stroke:none"
         id="path50"
         inkscape:connector-curvature="0" /><path
         d="m 1723.3,104.66 h 23.07 V 2.76172 H 1723.3 V 104.66"
         style="fill:#38a6e3;fill-opacity:1;fill-rule:nonzero;stroke:none"
         id="path52"
         inkscape:connector-curvature="0" /><path
         d="m 1770.82,104.66 h 22.01 l 44.15,-66.1483 V 104.66 h 22.76 V 2.76172 h -20.93 L 1793.59,70.1289 V 2.76172 h -22.77 V 104.66"
         style="fill:#38a6e3;fill-opacity:1;fill-rule:nonzero;stroke:none"
         id="path54"
         inkscape:connector-curvature="0" /><path
         d="m 1936.9,58.8281 h 39.27 V 14.6719 c -5.29,-4.5821 -11.48,-8.12112 -18.56,-10.61331 -7.08,-2.48828 -15.15,-3.749996 -24.22,-3.749996 -8.35,0 -15.81,1.300786 -22.38,3.902346 -6.57,2.59765 -12.15,6.23826 -16.73,10.91796 -4.59,4.6914 -8.08,10.293 -10.47,16.8125 -2.39,6.5195 -3.59,13.6992 -3.59,21.5469 0,7.6328 1.27,14.7109 3.82,21.2305 2.54,6.5195 6.17,12.2031 10.85,17.0429 4.68,4.8281 10.24,8.6293 16.65,11.3863 6.42,2.743 13.55,4.114 21.39,4.114 9.27,0 17.39,-1.703 24.37,-5.114 6.98,-3.4175 12.76,-8.1792 17.34,-14.2886 l -15.58,-14.8203 c -3.26,3.8711 -6.85,7.0195 -10.77,9.4726 -3.93,2.4492 -8.74,3.668 -14.44,3.668 -4.69,0 -8.86,-0.8594 -12.53,-2.6016 -3.66,-1.7187 -6.77,-4.0664 -9.32,-7.0195 -2.55,-2.957 -4.48,-6.4297 -5.8,-10.3867 -1.33,-3.9805 -1.99,-8.2031 -1.99,-12.6836 0,-4.8985 0.76,-9.3164 2.29,-13.2969 1.53,-3.9726 3.67,-7.3633 6.42,-10.1601 2.75,-2.8008 5.98,-4.9727 9.7,-6.5 3.71,-1.5313 7.77,-2.293 12.15,-2.293 4.07,0 7.79,0.4922 11.15,1.4531 3.36,0.9688 6.36,2.5274 9.01,4.668 v 12.832 h -18.03 v 18.6367"
         style="fill:#38a6e3;fill-opacity:1;fill-rule:nonzero;stroke:none"
         id="path56"
         inkscape:connector-curvature="0" /><path
         d="m 2039.12,33.1602 c 1.32,-1.4219 2.87,-2.8789 4.66,-4.3516 1.78,-1.4688 3.76,-2.8281 5.95,-4.0469 2.19,-1.2304 4.59,-2.2226 7.19,-2.9804 2.6,-0.7696 5.37,-1.1524 8.33,-1.1524 1.73,0 3.45,0.2617 5.19,0.7617 1.73,0.5196 3.31,1.2578 4.74,2.2188 1.42,0.9687 2.57,2.1406 3.43,3.5195 0.87,1.3711 1.3,2.9297 1.3,4.6602 0,3.7617 -1.83,6.6992 -5.5,8.7812 -3.66,2.0899 -9.47,4.1602 -17.42,6.1914 -3.87,0.9102 -7.46,2.2383 -10.77,3.9688 -3.31,1.7304 -6.16,3.8281 -8.56,6.2578 -2.39,2.4531 -4.25,5.2617 -5.57,8.4101 -1.32,3.1602 -1.99,6.6719 -1.99,10.5508 0,4.2696 0.76,8.3008 2.29,12.0703 1.53,3.7618 3.85,7.1016 6.96,10 3.1,2.9105 6.97,5.1995 11.61,6.8715 4.63,1.687 10.11,2.531 16.42,2.531 5.2,0 9.78,-0.543 13.75,-1.613 3.97,-1.071 7.36,-2.34 10.16,-3.809 2.8,-1.488 5.1,-3.0195 6.88,-4.5898 1.78,-1.5821 3.13,-2.8321 4.05,-3.75 L 2088.93,79 c -1.13,0.9219 -2.43,1.8984 -3.9,2.9805 -1.48,1.0703 -3.13,2.0586 -4.97,2.9804 -1.83,0.9102 -3.84,1.6797 -6.03,2.2891 -2.19,0.6094 -4.51,0.9219 -6.95,0.9219 -1.63,0 -3.24,-0.2617 -4.82,-0.7735 -1.58,-0.5078 -3,-1.1992 -4.27,-2.0586 -1.28,-0.8593 -2.3,-1.8906 -3.06,-3.0585 -0.76,-1.1719 -1.14,-2.4102 -1.14,-3.7305 0,-3.4727 1.83,-6.2695 5.5,-8.4219 3.66,-2.1289 8.7,-3.918 15.12,-5.3398 3.77,-0.918 7.46,-2.1602 11.08,-3.7383 3.61,-1.5899 6.85,-3.6406 9.7,-6.1914 2.85,-2.5508 5.14,-5.6797 6.87,-9.3985 1.74,-3.7226 2.6,-8.2304 2.6,-13.5195 0,-4.582 -1.02,-8.8125 -3.05,-12.6797 -2.04,-3.8828 -4.82,-7.2422 -8.33,-10.08982 -3.51,-2.85157 -7.64,-5.07032 -12.38,-6.64063 -4.73,-1.582031 -9.85,-2.371094 -15.35,-2.371094 -5.09,0 -9.73,0.488282 -13.9,1.449224 -4.18,0.96875 -7.95,2.24218 -11.31,3.82031 -3.36,1.58203 -6.4,3.39062 -9.09,5.42191 -2.7,2.039 -5.02,4.1289 -6.95,6.2695 l 14.82,16.0391"
         style="fill:#38a6e3;fill-opacity:1;fill-rule:nonzero;stroke:none"
         id="path58"
         inkscape:connector-curvature="0" /><path
         d="M 2148.21,84.3516 H 2115.2 V 104.66 h 89.08 V 84.3516 h -32.85 V 2.76172 h -23.22 V 84.3516"
         style="fill:#38a6e3;fill-opacity:1;fill-rule:nonzero;stroke:none"
         id="path60"
         inkscape:connector-curvature="0" /><path
         d="m 2258.99,44.0195 -12.38,38.4922 -12.68,-38.4922 z m -24.3,60.6405 h 25.52 L 2297.49,2.76172 h -25.21 l -7.79,23.36718 h -35.91 l -7.79,-23.36718 h -24.14 L 2234.69,104.66"
         style="fill:#38a6e3;fill-opacity:1;fill-rule:nonzero;stroke:none"
         id="path62"
         inkscape:connector-curvature="0" /><path
         d="m 2313.22,104.66 h 22.01 l 44.15,-66.1483 V 104.66 h 22.77 V 2.76172 h -20.93 L 2335.99,70.1289 V 2.76172 h -22.77 V 104.66"
         style="fill:#38a6e3;fill-opacity:1;fill-rule:nonzero;stroke:none"
         id="path64"
         inkscape:connector-curvature="0" /><path
         d="m 2463.72,23.2305 c 10.19,0 18.03,2.6679 23.53,8.0312 5.5,5.3399 8.26,12.6992 8.26,22.0664 0,4.6914 -0.64,8.9414 -1.92,12.7617 -1.27,3.8086 -3.2,7.0821 -5.8,9.7813 -2.6,2.6992 -5.88,4.7773 -9.85,6.2578 -3.98,1.4727 -8.72,2.2227 -14.22,2.2227 h -14.06 V 23.2305 Z m -37.13,81.4295 h 38.51 c 7.84,0 15.1,-1.012 21.77,-3.039 6.67,-2.0507 12.43,-5.1522 17.27,-9.3319 4.83,-4.1797 8.6,-9.5274 11.3,-16.0391 2.7,-6.5195 4.05,-14.2109 4.05,-23.0703 0,-8.4492 -1.37,-15.8203 -4.13,-22.0781 -2.74,-6.2735 -6.54,-11.5118 -11.38,-15.7422 -4.84,-4.2188 -10.59,-7.37893 -17.26,-9.46877 -6.67,-2.08204 -13.93,-3.12891 -21.77,-3.12891 h -38.36 V 104.66"
         style="fill:#38a6e3;fill-opacity:1;fill-rule:nonzero;stroke:none"
         id="path66"
         inkscape:connector-curvature="0" /><path
         d="m 2589.62,44.0195 -12.38,38.4922 -12.67,-38.4922 z m -24.3,60.6405 h 25.52 L 2628.12,2.76172 h -25.21 l -7.79,23.36718 h -35.91 l -7.79,-23.36718 h -24.14 L 2565.32,104.66"
         style="fill:#38a6e3;fill-opacity:1;fill-rule:nonzero;stroke:none"
         id="path68"
         inkscape:connector-curvature="0" /><path
         d="m 2680.53,58.6797 c 4.28,0 7.64,1.2695 10.08,3.8203 2.45,2.5391 3.67,5.7617 3.67,9.6211 0,4.168 -1.22,7.5 -3.67,9.9297 -2.44,2.4492 -5.8,3.668 -10.08,3.668 h -14.21 V 58.6797 Z m -36.67,45.9803 h 37.89 c 5.91,0 11.1,-0.84 15.59,-2.512 4.48,-1.679 8.22,-3.9761 11.23,-6.8785 3,-2.9101 5.25,-6.289 6.72,-10.1601 1.47,-3.8711 2.22,-8 2.22,-12.3789 0,-6.6211 -1.46,-12.3907 -4.36,-17.3321 -2.9,-4.9492 -7,-8.8867 -12.3,-11.8398 l 22.62,-40.79688 h -25.37 l -18.95,37.42968 h -12.83 V 2.76172 h -22.46 V 104.66"
         style="fill:#38a6e3;fill-opacity:1;fill-rule:nonzero;stroke:none"
         id="path70"
         inkscape:connector-curvature="0" /><path
         d="m 2778.31,23.2305 c 10.19,0 18.03,2.6679 23.53,8.0312 5.5,5.3399 8.26,12.6992 8.26,22.0664 0,4.6914 -0.64,8.9414 -1.92,12.7617 -1.27,3.8086 -3.2,7.0821 -5.8,9.7813 -2.6,2.6992 -5.88,4.7773 -9.85,6.2578 -3.98,1.4727 -8.72,2.2227 -14.22,2.2227 h -14.06 V 23.2305 Z m -37.13,81.4295 h 38.51 c 7.84,0 15.1,-1.012 21.77,-3.039 6.67,-2.0507 12.43,-5.1522 17.27,-9.3319 4.83,-4.1797 8.6,-9.5274 11.3,-16.0391 2.7,-6.5195 4.05,-14.2109 4.05,-23.0703 0,-8.4492 -1.37,-15.8203 -4.12,-22.0781 -2.75,-6.2735 -6.55,-11.5118 -11.39,-15.7422 -4.84,-4.2188 -10.59,-7.37893 -17.26,-9.46877 -6.67,-2.08204 -13.93,-3.12891 -21.77,-3.12891 h -38.36 V 104.66"
         style="fill:#38a6e3;fill-opacity:1;fill-rule:nonzero;stroke:none"
         id="path72"
         inkscape:connector-curvature="0" /><path
         d="m 2648.98,1122.64 h 5.28 c 6.15,0 11.14,2.05 11.14,7.04 0,4.39 -3.23,7.33 -10.26,7.33 -2.93,0 -4.99,-0.3 -6.16,-0.59 z m -0.29,-27.26 h -11.14 v 48.08 c 4.39,0.88 10.55,1.46 18.47,1.46 9.09,0 13.19,-1.46 16.71,-3.52 2.64,-2.04 4.69,-5.86 4.69,-10.55 0,-5.28 -4.11,-9.39 -9.97,-11.14 v -0.58 c 4.69,-1.77 7.33,-5.28 8.8,-11.73 1.46,-7.33 2.34,-10.27 3.51,-12.02 h -12.02 c -1.46,1.75 -2.34,6.16 -3.81,11.73 -0.88,5.27 -3.81,7.62 -9.97,7.62 h -5.27 z m -29.61,25.21 c 0,-21.4 15.83,-38.41 37.52,-38.41 21.11,0 36.65,17.01 36.65,38.12 0,21.4 -15.54,38.69 -36.94,38.69 -21.4,0 -37.23,-17.29 -37.23,-38.4 z m 86.48,0 c 0,-27.27 -21.4,-48.67 -49.25,-48.67 -27.56,0 -49.55,21.4 -49.55,48.67 0,26.68 21.99,48.08 49.55,48.08 27.85,0 49.25,-21.4 49.25,-48.08"
         style="fill:#231f20;fill-opacity:1;fill-rule:nonzero;stroke:none"
         id="path74"
         inkscape:connector-curvature="0" /></g></g></svg>